<svg xmlns="http://www.w3.org/2000/svg" viewBox="0 0 64 64" role="img" aria-label="飛行機と島のロゴ">
  <defs>
    <linearGradient id="sky" x1="13" x2="51" y1="8" y2="58" gradientUnits="userSpaceOnUse">
      <stop offset="0" stop-color="#BEE9F2"/>
      <stop offset="0.58" stop-color="#5AB7C8"/>
      <stop offset="1" stop-color="#0F7F8D"/>
    </linearGradient>
    <linearGradient id="sun" x1="39" x2="54" y1="11" y2="27" gradientUnits="userSpaceOnUse">
      <stop offset="0" stop-color="#FFE29A"/>
      <stop offset="1" stop-color="#F0A536"/>
    </linearGradient>
  </defs>
  <circle cx="32" cy="32" r="29" fill="url(#sky)"/>
  <circle cx="47" cy="19" r="8" fill="url(#sun)"/>
  <path fill="#10212B" d="M9 31.9c13.7-3.7 26.9-7 41-8.8 2.7-.3 4.7.8 5.1 2.5.4 1.8-1.1 3.4-3.9 3.8l-12 1.8-7.2 8.9c-.6.8-1.7 1.1-2.6.8l-2.4-.8 5.1-8-10.9 1.6-3.2 3.7c-.5.6-1.3.8-2 .6l-1.8-.5 2.2-4.8-4.5-3.1Z"/>
  <path fill="#0D5C47" d="M16.5 47.5c4.2-7.3 10.2-10.4 16.2-10.4 6.5 0 12.2 3.8 15.6 10.4Z"/>
  <path fill="#F3C96D" d="M13.5 48.2h37c1.4 0 2.5 1.1 2.5 2.5v.1H11v-.1c0-1.4 1.1-2.5 2.5-2.5Z"/>
  <path fill="none" stroke="#FFFFFF" stroke-linecap="round" stroke-width="3" d="M12 54.2c5 2.4 9.7 2.4 14.2 0 4.5-2.4 9.2-2.4 14.2 0 3.5 1.7 7.2 2.1 11.1 1.1"/>
</svg>
