<svg xmlns="http://www.w3.org/2000/svg" viewBox="0 0 128 128" role="img" aria-label="飛行機と島のロゴ">
  <defs>
    <linearGradient id="skyLogo" x1="22" x2="106" y1="14" y2="116" gradientUnits="userSpaceOnUse">
      <stop offset="0" stop-color="#BEE9F2"/>
      <stop offset="0.56" stop-color="#5AB7C8"/>
      <stop offset="1" stop-color="#0F7F8D"/>
    </linearGradient>
    <linearGradient id="sunLogo" x1="77" x2="108" y1="20" y2="52" gradientUnits="userSpaceOnUse">
      <stop offset="0" stop-color="#FFE29A"/>
      <stop offset="1" stop-color="#F0A536"/>
    </linearGradient>
    <filter id="shadow" x="-20%" y="-20%" width="140%" height="140%">
      <feDropShadow dx="0" dy="10" stdDeviation="8" flood-color="#10212B" flood-opacity=".18"/>
    </filter>
  </defs>
  <circle cx="64" cy="64" r="58" fill="url(#skyLogo)" filter="url(#shadow)"/>
  <circle cx="94" cy="38" r="17" fill="url(#sunLogo)"/>
  <path fill="#10212B" d="M17.3 64.3c27.5-7.5 54.2-14.3 82.4-17.7 5.3-.6 9.6 1.5 10.3 5.1.7 3.5-2.2 6.8-7.7 7.6l-24.5 3.6-14.4 17.9c-1.3 1.6-3.4 2.2-5.3 1.6l-4.7-1.6 10.3-16.2-22 3.3-6.2 7.4c-1 1.2-2.7 1.7-4.2 1.2l-3.5-1.1 4.3-9.5-9.1-6.1Z"/>
  <path fill="#0D5C47" d="M33 95.3c8.6-14.9 20.7-21.3 32.8-21.3 13.1 0 24.5 7.8 31.3 21.3Z"/>
  <path fill="#F3C96D" d="M27.3 96.8h73.4c2.9 0 5.3 2.4 5.3 5.3v.4H22v-.4c0-2.9 2.4-5.3 5.3-5.3Z"/>
  <path fill="none" stroke="#FFFFFF" stroke-linecap="round" stroke-width="6" d="M24 108.5c10.1 4.8 19.5 4.8 28.6 0 9.1-4.8 18.5-4.8 28.6 0 7.1 3.4 14.6 4.2 22.4 2.2"/>
</svg>
